<svg width="71" height="70" viewBox="0 0 71 70" fill="none" xmlns="http://www.w3.org/2000/svg">
<path d="M35.0043 68.9062C53.7347 68.9062 68.9105 53.7305 68.9105 35C68.9105 16.2695 53.7347 1.09375 35.0043 1.09375C16.2738 1.09375 1.09802 16.2695 1.09802 35C1.09802 53.7305 16.2738 68.9062 35.0043 68.9062ZM19.1449 28.9844H35.0043V19.291C35.0043 17.8281 36.7816 17.0898 37.807 18.1289L53.434 33.8379C54.0765 34.4805 54.0765 35.5059 53.434 36.1484L37.807 51.8711C36.7679 52.9102 35.0043 52.1719 35.0043 50.709V41.0156H19.1449C18.2426 41.0156 17.5043 40.2773 17.5043 39.375V30.625C17.5043 29.7227 18.2426 28.9844 19.1449 28.9844Z" fill="black"/>
</svg>
