<svg width="19" height="19" viewBox="0 0 19 19" fill="none" xmlns="http://www.w3.org/2000/svg">
<path d="M16.1536 17.7774L12.6312 14.2898C12.4722 14.1323 12.3833 13.9183 12.3821 13.6933L12.3792 13.1202C11.1432 14.0969 9.58539 14.6813 7.88753 14.6899C3.84852 14.7102 0.559339 11.4535 0.538984 7.41377C0.518629 3.37407 3.77482 0.0843398 7.81383 0.0639883C11.8528 0.0436367 15.142 3.30039 15.1624 7.34009C15.1709 9.03824 14.6023 10.6022 13.6383 11.8482L14.2113 11.8453C14.4363 11.8441 14.6512 11.9309 14.8102 12.0884L18.3325 15.576C18.6646 15.9048 18.6673 16.4392 18.3385 16.7679L17.3487 17.7679C17.02 18.1 16.4856 18.1027 16.1536 17.7774ZM12.3502 7.35426C12.3377 4.86856 10.3168 2.86412 7.828 2.87666C5.34273 2.88918 3.33863 4.91039 3.35117 7.3996C3.3637 9.8853 5.38457 11.8897 7.87335 11.8772C10.3586 11.8647 12.3627 9.84347 12.3502 7.35426Z" fill="white"/>
</svg>
